<svg id="svg" xmlns="http://www.w3.org/2000/svg" xmlns:xlink="http://www.w3.org/1999/xlink" width="400" height="409.04761904761904" viewBox="0, 0, 400,409.04761904761904"><g id="svgg"><path id="path0" d="M12.857 43.771 C -0.270 47.863,-1.921 65.420,10.219 71.828 L 12.619 73.095 33.415 73.237 L 54.212 73.380 54.923 75.380 C 55.315 76.481,57.272 81.667,59.273 86.905 C 61.273 92.143,64.797 101.464,67.102 107.619 C 73.148 123.761,85.841 157.440,95.008 181.667 C 99.369 193.190,106.768 212.798,111.450 225.238 C 116.133 237.679,120.736 249.893,121.681 252.381 C 130.381 275.301,133.399 283.423,133.259 283.542 C 133.169 283.619,132.131 284.277,130.952 285.004 C 94.807 307.321,108.737 363.759,150.952 366.032 C 179.426 367.566,202.272 339.729,194.991 312.371 C 194.609 310.936,194.294 309.494,194.291 309.167 C 194.287 308.695,203.314 308.571,237.857 308.571 C 275.434 308.571,281.429 308.666,281.429 309.256 C 281.429 309.633,281.077 311.401,280.647 313.185 C 274.072 340.458,297.119 367.798,325.202 366.039 C 373.455 363.016,380.785 295.221,334.467 280.345 L 331.190 279.292 247.552 279.162 C 181.919 279.060,163.815 278.906,163.459 278.445 C 162.982 277.828,155.700 258.595,155.709 257.976 C 155.712 257.780,198.625 257.618,251.071 257.616 C 352.720 257.614,348.323 257.723,352.212 255.106 C 356.800 252.020,355.205 256.349,372.611 199.762 C 376.720 186.405,384.282 161.869,389.416 145.238 C 397.931 117.655,398.753 114.686,398.777 111.429 C 398.820 105.549,395.760 100.564,390.524 97.984 L 388.333 96.905 241.443 96.667 L 94.552 96.429 91.542 88.333 C 76.493 47.859,76.529 47.934,70.714 44.839 L 68.333 43.571 41.190 43.486 C 26.262 43.439,13.512 43.567,12.857 43.771 M188.129 129.167 C 188.147 130.542,188.252 132.738,188.362 134.048 C 188.472 135.357,188.778 139.000,189.042 142.143 C 189.307 145.286,189.842 152.250,190.232 157.619 C 190.622 162.988,191.058 168.399,191.201 169.643 L 191.461 171.905 157.232 171.905 L 123.002 171.905 119.138 161.548 C 117.014 155.851,113.234 145.833,110.739 139.286 C 108.244 132.738,106.200 127.220,106.197 127.024 C 106.193 126.827,124.619 126.667,147.143 126.667 L 188.095 126.667 188.129 129.167 M272.857 128.474 C 272.857 130.527,270.161 165.584,269.710 169.405 L 269.414 171.905 237.802 171.905 C 212.270 171.905,206.190 171.786,206.190 171.289 C 206.190 170.950,205.443 161.147,204.528 149.503 C 203.614 137.860,202.864 127.958,202.862 127.500 C 202.857 126.714,204.840 126.667,237.857 126.667 L 272.857 126.667 272.857 128.474 M363.810 127.089 C 363.810 127.321,360.726 137.446,356.956 149.589 L 350.103 171.667 317.156 171.789 L 284.209 171.911 284.455 170.599 C 284.591 169.876,285.405 159.696,286.264 147.976 L 287.826 126.667 325.818 126.667 C 347.587 126.667,363.810 126.847,363.810 127.089 M192.591 189.167 C 192.847 191.100,193.803 203.372,194.769 217.143 C 195.017 220.679,195.327 224.482,195.458 225.595 L 195.696 227.619 169.851 227.619 L 144.006 227.619 136.646 208.012 C 132.598 197.227,129.216 188.120,129.132 187.773 C 129.005 187.255,134.605 187.143,160.650 187.143 L 192.323 187.143 192.591 189.167 M268.091 188.690 C 268.088 189.542,267.447 198.381,266.667 208.333 C 265.886 218.286,265.245 226.696,265.243 227.024 C 265.239 227.493,259.442 227.619,237.857 227.619 C 216.270 227.619,210.476 227.493,210.475 227.024 C 210.475 226.696,209.832 218.098,209.047 207.917 C 208.262 197.735,207.619 188.896,207.619 188.274 L 207.619 187.143 237.857 187.143 L 268.095 187.143 268.091 188.690 M345.238 187.501 C 345.238 187.785,339.510 206.555,333.868 224.762 L 333.056 227.381 306.573 227.504 L 280.090 227.627 280.293 225.837 C 280.405 224.853,281.027 216.762,281.674 207.857 C 282.321 198.952,282.980 190.649,283.137 189.405 L 283.423 187.143 314.330 187.143 C 331.330 187.143,345.238 187.304,345.238 187.501 M158.704 310.115 C 161.733 311.401,165.011 315.072,165.948 318.228 C 169.923 331.615,154.285 341.926,144.247 332.537 C 132.917 321.939,144.445 304.062,158.704 310.115 M328.336 310.061 C 333.606 312.511,337.161 319.075,336.150 324.488 C 334.154 335.171,322.001 339.758,314.105 332.808 C 302.448 322.547,314.331 303.552,328.336 310.061 " stroke="none" fill="#000000" fill-rule="evenodd"></path></g></svg>