<svg id="svg" xmlns="http://www.w3.org/2000/svg" xmlns:xlink="http://www.w3.org/1999/xlink" width="400" height="362.1301775147929" viewBox="0, 0, 400,362.1301775147929"><g id="svgg"><path id="path0" d="M185.417 4.730 C 177.443 7.945,10.404 174.310,6.152 183.272 C -6.546 210.030,0.736 224.074,56.334 280.054 C 108.736 332.817,114.677 336.996,137.518 337.163 C 152.137 337.271,153.766 337.841,162.828 346.026 C 178.511 360.193,199.060 363.190,218.008 354.075 C 228.021 349.257,393.033 189.015,396.935 180.320 C 398.958 175.811,399.818 152.133,399.893 98.817 L 400.000 23.669 369.231 23.669 L 338.462 23.669 338.462 13.018 L 338.462 2.367 264.497 2.517 C 223.817 2.599,188.231 3.595,185.417 4.730 M305.325 87.692 C 305.325 151.833,311.554 140.025,242.340 207.101 C 122.221 323.510,141.358 317.548,81.136 257.325 C 34.695 210.885,32.572 207.461,40.912 192.464 C 44.344 186.293,190.815 42.267,197.633 38.360 C 200.782 36.555,219.606 35.623,253.846 35.575 L 305.325 35.503 305.325 87.692 M219.399 62.279 C 190.540 79.750,193.395 119.191,224.527 133.117 C 249.947 144.487,279.359 124.843,279.251 96.567 C 279.135 66.370,244.972 46.799,219.399 62.279 M366.864 108.993 C 366.864 173.768,375.509 159.189,285.527 246.154 C 201.572 327.293,196.168 331.055,182.301 318.017 C 178.364 314.316,169.663 323.474,271.006 224.655 C 346.419 151.120,338.427 165.191,338.446 105.917 L 338.462 56.805 352.663 56.805 L 366.864 56.805 366.864 108.993 M253.057 84.123 C 261.066 91.867,260.755 103.190,252.333 110.434 C 234.701 125.600,210.635 104.534,223.922 85.564 C 231.529 74.703,242.741 74.148,253.057 84.123 " stroke="none" fill="#000000" fill-rule="evenodd"></path></g></svg>