<svg id="svg" xmlns="http://www.w3.org/2000/svg" xmlns:xlink="http://www.w3.org/1999/xlink" width="400" height="324" viewBox="0, 0, 400,324"><g id="svgg"><path id="path0" d="M71.422 2.136 C 17.979 15.062,-13.236 76.991,5.628 132.667 C 23.779 186.238,94.037 257.222,187.927 316.849 C 201.768 325.639,198.329 326.137,219.106 312.330 C 379.301 205.875,435.424 109.313,379.373 36.585 C 337.918 -17.203,263.134 -9.684,221.379 52.471 C 206.940 73.965,193.250 73.932,178.721 52.368 C 150.363 10.278,112.003 -7.680,71.422 2.136 M70.390 80.451 C 73.557 83.618,73.883 85.125,74.964 101.597 C 77.604 141.818,88.537 165.354,116.757 191.569 C 135.006 208.522,137.181 212.603,132.644 221.377 C 117.714 250.249,59.846 189.311,47.770 132.000 C 44.562 116.776,43.797 90.725,46.379 84.615 C 50.193 75.587,63.260 73.321,70.390 80.451 " stroke="none" fill="#000000" fill-rule="evenodd"></path></g></svg>