<svg id="svg" xmlns="http://www.w3.org/2000/svg" xmlns:xlink="http://www.w3.org/1999/xlink" width="400" height="266.6666666666667" viewBox="0, 0, 400,266.6666666666667"><g id="svgg"><path id="path0" d="M176.779 3.280 C 166.311 8.655,163.013 16.394,163.591 34.226 L 164.045 48.228 152.060 51.717 C 85.115 71.205,35.068 132.403,29.571 201.498 C 29.224 205.854,28.937 206.017,20.225 206.778 C 3.423 208.247,0.749 212.345,0.749 236.632 C 0.749 256.457,2.409 260.828,11.359 264.568 C 18.994 267.758,387.122 267.009,391.960 263.794 C 398.661 259.341,400.000 254.612,400.000 235.399 L 400.000 217.328 394.707 212.035 C 389.854 207.182,388.684 206.742,380.649 206.742 L 371.885 206.742 370.809 196.629 C 363.724 129.995,315.971 72.799,250.423 52.435 C 235.321 47.743,235.048 47.577,235.914 43.633 C 239.766 26.092,236.516 12.427,226.712 4.946 C 218.716 -1.155,187.450 -2.198,176.779 3.280 M212.734 29.775 C 212.734 32.968,212.313 37.687,211.798 40.262 L 210.861 44.944 200.021 44.944 L 189.180 44.944 188.336 35.630 C 187.249 23.650,186.907 23.970,200.837 23.970 L 212.734 23.970 212.734 29.775 M234.457 73.226 C 294.028 88.001,338.955 138.308,346.667 198.876 L 347.669 206.742 200.801 206.742 L 53.933 206.742 53.933 202.321 C 53.933 191.914,60.534 167.971,67.321 153.768 C 97.332 90.952,168.211 56.797,234.457 73.226 M376.030 236.704 L 376.030 242.697 200.000 242.697 L 23.970 242.697 23.970 236.704 L 23.970 230.712 200.000 230.712 L 376.030 230.712 376.030 236.704 " stroke="none" fill="#000000" fill-rule="evenodd"></path></g></svg>