<svg id="svg" xmlns="http://www.w3.org/2000/svg" xmlns:xlink="http://www.w3.org/1999/xlink" width="400" height="400" viewBox="0, 0, 400,400"><g id="svgg"><path id="path0" d="M138.766 1.212 C 35.512 15.273,-27.366 123.259,11.055 220.542 C 48.787 316.080,165.550 351.936,251.484 294.374 L 259.609 288.932 313.594 342.864 C 372.829 402.041,370.400 399.952,380.027 399.983 C 391.919 400.021,400.022 391.870,399.983 379.908 C 399.952 370.408,401.959 372.737,342.854 313.585 L 288.905 259.593 293.920 252.248 C 372.588 137.025,277.012 -17.614,138.766 1.212 M184.766 42.812 C 289.538 65.543,316.424 202.113,227.734 261.070 C 149.194 313.280,43.724 258.944,40.856 164.794 C 38.498 87.397,110.186 26.632,184.766 42.812 " stroke="none" fill="#000000" fill-rule="evenodd"></path></g></svg>