<svg id="svg" xmlns="http://www.w3.org/2000/svg" xmlns:xlink="http://www.w3.org/1999/xlink" width="400" height="411.0709987966306" viewBox="0, 0, 400,411.0709987966306"><g id="svgg"><path id="path0" d="M156.548 0.336 C 153.090 1.176,150.256 3.697,149.105 6.957 C 148.904 7.529,147.002 20.304,144.879 35.346 C 142.757 50.388,140.981 62.804,140.934 62.936 C 140.887 63.069,139.726 63.653,138.354 64.234 C 129.428 68.019,117.515 74.930,108.937 81.298 C 106.801 82.884,106.227 83.204,105.806 83.044 C 105.523 82.936,93.811 78.205,79.781 72.531 L 54.272 62.214 51.504 62.216 C 45.498 62.220,45.092 62.651,35.704 78.966 C 31.714 85.902,22.260 102.298,14.695 115.403 C 6.091 130.309,0.800 139.719,0.562 140.536 C -0.232 143.263,0.252 146.757,1.751 149.133 C 2.706 150.645,3.883 151.603,26.086 168.953 L 47.184 185.439 47.070 186.883 C 47.008 187.677,46.763 190.006,46.528 192.058 C 45.910 197.427,45.910 213.644,46.528 219.013 C 46.763 221.065,47.008 223.394,47.070 224.188 L 47.184 225.632 26.081 242.118 C 14.474 251.185,4.292 259.238,3.454 260.013 C 0.108 263.108,-0.801 267.941,1.184 272.080 C 3.308 276.507,43.086 344.843,44.232 346.033 C 46.267 348.147,48.094 348.857,51.504 348.857 L 54.272 348.857 80.265 338.342 C 101.892 329.593,106.326 327.875,106.665 328.113 C 106.889 328.271,108.702 329.569,110.692 330.999 C 119.174 337.092,129.986 343.282,138.354 346.835 C 139.726 347.418,140.887 348.002,140.934 348.135 C 140.981 348.267,142.757 360.683,144.879 375.725 C 147.002 390.767,148.904 403.542,149.105 404.114 C 150.290 407.472,153.281 410.048,156.871 410.803 C 158.678 411.183,241.322 411.183,243.129 410.803 C 246.719 410.048,249.710 407.472,250.895 404.114 C 251.096 403.542,252.998 390.767,255.121 375.725 C 257.243 360.683,259.019 348.267,259.066 348.135 C 259.113 348.002,260.274 347.418,261.646 346.837 C 270.572 343.052,282.485 336.141,291.065 329.771 L 293.682 327.828 294.915 328.313 C 296.191 328.814,320.194 338.495,336.462 345.070 C 345.336 348.656,345.813 348.820,347.731 348.927 C 351.177 349.120,354.536 347.768,356.373 345.449 C 357.204 344.399,398.039 273.787,398.945 271.834 C 400.791 267.850,399.782 262.973,396.483 259.925 C 395.681 259.185,356.716 228.526,352.857 225.599 C 352.807 225.561,353.023 223.116,353.338 220.165 C 354.175 212.325,354.175 198.746,353.338 190.906 C 353.023 187.955,352.807 185.510,352.857 185.471 C 374.766 168.494,397.295 150.647,397.963 149.739 C 399.894 147.116,400.515 142.800,399.371 139.951 C 398.513 137.812,357.345 66.684,356.258 65.461 C 354.050 62.977,351.581 61.981,348.051 62.152 L 345.728 62.264 319.765 72.766 L 293.802 83.268 291.245 81.390 C 281.421 74.174,271.583 68.503,260.358 63.588 C 258.960 62.976,259.641 66.721,255.228 35.379 C 253.169 20.752,251.369 8.353,251.229 7.826 C 250.249 4.141,246.963 1.075,243.129 0.268 C 241.215 -0.134,158.217 -0.070,156.548 0.336 M210.349 134.516 C 268.329 143.392,292.040 213.320,251.391 255.558 C 219.658 288.533,164.641 283.060,139.734 244.451 C 110.414 199.001,140.099 138.809,194.224 133.964 C 197.241 133.694,207.207 134.035,210.349 134.516 " stroke="none" fill="#000000" fill-rule="evenodd"></path></g></svg>