<svg id="svg" xmlns="http://www.w3.org/2000/svg" xmlns:xlink="http://www.w3.org/1999/xlink" width="400" height="324" viewBox="0, 0, 400,324"><g id="svgg"><path id="path0" d="M71.422 2.136 C 17.979 15.062,-13.236 76.991,5.628 132.667 C 14.991 160.303,40.266 195.758,72.967 227.131 L 82.485 236.262 91.909 228.647 C 103.248 219.486,103.520 222.271,89.950 208.577 C 60.060 178.417,45.457 144.532,44.884 104.000 C 44.570 81.830,48.911 74.698,61.675 76.410 C 71.836 77.773,73.623 81.159,74.964 101.597 C 76.843 130.219,81.951 147.040,94.590 166.226 C 101.480 176.684,123.522 200.054,126.422 199.975 C 127.592 199.943,353.876 16.079,354.373 14.757 C 354.578 14.211,350.678 11.894,345.706 9.609 C 300.247 -11.289,253.351 4.879,221.379 52.471 C 206.940 73.965,193.250 73.932,178.721 52.368 C 150.363 10.278,112.003 -7.680,71.422 2.136 M243.769 146.516 C 169.216 207.099,108.319 257.267,108.441 258.000 C 109.223 262.705,194.595 324.000,200.366 324.000 C 203.941 324.000,260.741 284.145,285.121 264.530 C 390.971 179.367,425.919 98.899,382.411 40.516 L 379.318 36.364 243.769 146.516 " stroke="none" fill="#000000" fill-rule="evenodd"></path></g></svg>