<svg id="svg" version="1.1" xmlns="http://www.w3.org/2000/svg" xmlns:xlink="http://www.w3.org/1999/xlink" width="400" height="287.37864077669906" viewBox="0, 0, 400,287.37864077669906"><g id="svgg"><path id="path0" d="M28.571 0.555 C 28.383 0.860,27.616 1.110,26.868 1.110 C 25.424 1.110,20.376 3.251,20.065 3.996 C 19.963 4.239,19.589 4.439,19.233 4.440 C 18.877 4.440,17.712 5.189,16.644 6.103 C 15.576 7.017,14.531 7.765,14.323 7.766 C 14.115 7.766,13.786 8.266,13.592 8.877 C 13.399 9.487,12.882 9.986,12.445 9.986 C 12.008 9.986,11.646 10.173,11.642 10.402 C 11.637 10.631,10.888 11.664,9.977 12.697 C 9.067 13.730,8.322 14.773,8.322 15.015 C 8.322 15.257,7.974 15.802,7.549 16.227 C 5.717 18.059,2.659 25.500,1.221 31.623 C -0.513 39.010,-0.007 50.519,2.308 56.311 C 4.119 60.841,7.408 67.684,7.775 67.684 C 7.963 67.684,8.539 68.570,9.056 69.654 C 10.038 71.714,10.237 71.990,12.828 74.891 C 13.706 75.874,14.424 76.863,14.424 77.089 C 14.424 77.315,14.861 78.014,15.395 78.643 C 15.929 79.271,16.741 80.331,17.198 80.999 C 17.656 81.666,18.405 82.664,18.863 83.218 C 19.320 83.771,20.069 84.777,20.527 85.453 C 20.985 86.129,21.609 86.964,21.914 87.308 C 28.686 94.937,29.963 121.364,26.112 174.202 C 25.790 178.627,25.261 186.241,24.938 191.123 C 24.614 196.006,24.104 203.245,23.804 207.212 C 21.141 242.397,21.112 260.236,23.710 264.632 C 24.873 266.599,28.384 269.626,29.503 269.626 C 30.023 269.626,30.602 269.875,30.791 270.180 C 31.240 270.907,38.280 270.907,38.280 270.180 C 38.280 269.875,38.779 269.626,39.390 269.626 C 40.000 269.626,40.499 269.376,40.499 269.071 C 40.499 268.766,40.782 268.516,41.128 268.516 C 42.133 268.516,43.773 266.305,44.376 264.136 C 45.421 260.374,45.175 254.973,42.919 232.178 C 42.436 227.295,41.838 220.929,41.590 218.031 C 38.105 177.313,37.721 170.893,37.347 147.018 C 37.023 126.289,37.478 116.642,39.208 107.628 C 39.647 105.340,40.137 102.718,40.297 101.803 C 40.806 98.903,44.583 92.148,47.573 88.791 C 48.259 88.021,48.821 87.232,48.821 87.038 C 48.821 86.844,49.695 85.732,50.763 84.566 C 51.831 83.400,52.705 82.234,52.705 81.975 C 52.705 81.715,53.329 80.879,54.092 80.116 C 54.854 79.353,55.479 78.509,55.479 78.239 C 55.479 77.970,55.821 77.407,56.239 76.989 C 56.657 76.571,57.441 75.367,57.981 74.314 C 58.520 73.261,59.146 72.275,59.370 72.122 C 60.017 71.682,64.835 61.838,65.823 58.940 C 72.137 40.404,69.789 22.859,59.501 11.709 C 58.509 10.634,57.698 9.557,57.698 9.316 C 57.698 9.074,57.437 8.877,57.118 8.877 C 56.799 8.877,55.956 8.315,55.246 7.628 C 52.943 5.404,51.598 4.438,50.803 4.438 C 50.374 4.438,49.940 4.239,49.838 3.996 C 49.498 3.182,44.414 1.110,42.757 1.110 C 41.857 1.110,40.965 0.860,40.777 0.555 C 40.326 -0.174,29.022 -0.174,28.571 0.555 M366.566 38.991 C 366.197 76.135,366.434 74.341,361.884 74.341 C 359.544 74.341,358.615 74.071,357.591 73.093 L 356.284 71.845 355.992 39.945 C 355.831 22.399,355.680 7.982,355.658 7.906 C 355.476 7.286,352.209 8.399,351.179 9.432 C 351.026 9.585,350.276 10.032,349.510 10.425 C 346.922 11.754,345.828 14.264,345.108 20.527 C 344.740 23.731,344.311 26.852,344.154 27.462 C 343.884 28.518,343.657 30.340,342.365 41.886 C 342.058 44.632,341.561 49.001,341.262 51.595 C 339.874 63.618,340.094 78.642,341.688 80.685 C 341.942 81.010,342.307 81.939,342.501 82.749 C 343.112 85.313,350.288 91.995,353.537 93.025 C 354.071 93.195,354.508 93.554,354.508 93.823 C 354.508 94.093,354.766 94.313,355.081 94.313 C 355.921 94.313,359.274 97.808,360.206 99.655 C 364.613 108.393,364.938 144.006,361.177 206.103 C 358.420 251.621,358.448 264.968,361.315 270.458 C 362.537 272.797,364.883 275.172,365.973 275.173 C 366.329 275.173,366.716 275.460,366.832 275.810 C 367.391 277.484,376.336 276.627,378.778 274.665 C 383.208 271.104,383.420 267.169,380.576 241.331 C 379.954 235.687,379.202 228.759,378.905 225.936 C 378.607 223.114,378.100 218.370,377.779 215.395 C 377.194 209.986,376.759 205.218,375.615 191.678 C 371.631 144.534,371.999 119.768,376.906 104.882 C 378.377 100.423,382.569 96.533,385.905 96.533 C 386.334 96.533,386.685 96.283,386.685 95.978 C 386.685 95.673,387.084 95.423,387.570 95.423 C 389.398 95.423,395.562 89.991,395.562 88.380 C 395.562 87.982,395.782 87.656,396.051 87.656 C 396.700 87.656,398.264 83.198,399.068 79.057 C 399.440 77.138,399.715 70.442,399.718 63.245 C 399.723 50.429,399.262 45.015,396.639 27.046 C 396.316 24.834,395.907 21.527,395.730 19.697 C 395.285 15.093,393.463 12.391,389.181 9.986 C 385.816 8.096,385.930 6.850,386.366 40.729 C 386.748 70.456,386.720 71.909,385.749 72.961 C 382.875 76.076,380.007 76.117,377.187 73.084 C 376.228 72.052,375.119 26.988,375.699 12.621 L 375.940 6.657 371.414 6.657 L 366.888 6.657 366.566 38.991 M187.287 25.936 C 187.058 26.165,185.082 26.536,182.895 26.761 C 174.633 27.611,173.093 27.860,173.093 28.348 C 173.093 28.623,172.299 28.849,171.329 28.849 C 170.359 28.849,168.799 29.082,167.862 29.366 C 166.925 29.650,165.035 30.178,163.662 30.539 C 162.288 30.899,160.666 31.390,160.055 31.630 C 159.445 31.870,158.072 32.366,157.004 32.732 C 154.655 33.539,152.621 34.357,151.325 35.016 C 150.795 35.286,149.984 35.506,149.522 35.506 C 149.060 35.506,148.682 35.756,148.682 36.061 C 148.682 36.366,148.223 36.616,147.662 36.616 C 146.338 36.616,132.656 43.633,131.484 44.914 C 131.331 45.080,130.524 45.568,129.690 45.998 C 128.856 46.428,127.681 47.239,127.078 47.800 C 126.476 48.362,125.723 48.821,125.405 48.821 C 125.087 48.821,124.827 49.071,124.827 49.376 C 124.827 49.681,124.580 49.931,124.278 49.931 C 123.763 49.931,122.310 50.984,120.643 52.566 C 120.242 52.947,119.773 53.259,119.602 53.259 C 119.189 53.259,117.338 54.787,115.063 57.004 C 114.046 57.996,112.972 58.807,112.677 58.807 C 112.382 58.807,111.983 59.307,111.789 59.917 C 111.595 60.527,111.216 61.026,110.947 61.026 C 110.128 61.026,101.908 69.567,98.752 73.698 C 97.989 74.696,96.990 75.975,96.533 76.539 C 96.075 77.104,95.326 78.112,94.868 78.779 C 94.411 79.447,93.607 80.498,93.082 81.116 C 92.557 81.734,91.978 82.710,91.796 83.284 C 91.614 83.858,91.262 84.327,91.015 84.327 C 90.767 84.327,90.254 85.076,89.875 85.992 C 89.496 86.907,89.009 87.656,88.792 87.656 C 88.576 87.656,87.425 89.591,86.233 91.956 C 85.042 94.320,83.876 96.338,83.642 96.440 C 83.409 96.542,83.218 96.940,83.218 97.326 C 83.218 97.711,82.207 100.095,80.971 102.624 C 67.154 130.899,65.796 171.685,77.666 201.942 C 78.324 203.620,79.059 205.617,79.300 206.380 C 79.991 208.575,87.113 222.560,87.981 223.428 C 88.413 223.859,88.766 224.426,88.766 224.688 C 88.766 224.949,89.108 225.506,89.526 225.924 C 89.944 226.342,90.729 227.546,91.271 228.599 C 92.102 230.214,95.899 235.504,97.902 237.837 C 98.217 238.203,99.098 239.284,99.861 240.239 C 101.728 242.576,114.094 255.201,114.516 255.201 C 114.700 255.201,115.634 255.950,116.592 256.865 C 117.550 257.781,118.535 258.530,118.781 258.530 C 119.027 258.530,119.820 259.092,120.543 259.778 C 122.669 261.795,124.246 262.968,124.833 262.968 C 125.135 262.968,125.381 263.218,125.381 263.523 C 125.381 263.828,125.756 264.078,126.214 264.078 C 126.671 264.078,127.046 264.327,127.046 264.632 C 127.046 264.938,127.306 265.187,127.624 265.187 C 127.942 265.187,128.738 265.687,129.393 266.297 C 130.048 266.907,130.911 267.406,131.311 267.406 C 131.711 267.406,132.039 267.656,132.039 267.961 C 132.039 268.266,132.413 268.516,132.871 268.516 C 133.329 268.516,133.704 268.703,133.705 268.932 C 133.706 269.161,135.078 269.972,136.755 270.735 C 138.431 271.498,139.803 272.309,139.804 272.538 C 139.805 272.767,140.131 272.954,140.527 272.954 C 141.548 272.954,144.235 274.259,144.240 274.757 C 144.242 274.986,144.868 275.173,145.631 275.173 C 146.394 275.173,147.018 275.423,147.018 275.728 C 147.018 276.033,147.396 276.283,147.858 276.283 C 148.320 276.283,149.131 276.501,149.661 276.768 C 154.072 278.991,155.620 279.612,156.746 279.612 C 157.462 279.612,158.203 279.861,158.391 280.166 C 158.580 280.472,159.343 280.721,160.088 280.721 C 160.833 280.721,161.442 280.944,161.442 281.215 C 161.442 281.487,162.254 281.844,163.245 282.008 C 166.233 282.503,168.316 282.998,169.487 283.493 C 174.536 285.626,205.965 288.324,208.856 286.872 C 209.477 286.560,211.983 286.190,214.424 286.050 C 216.865 285.910,220.361 285.545,222.191 285.240 C 224.022 284.934,226.712 284.508,228.168 284.293 C 229.624 284.079,230.950 283.686,231.113 283.422 C 231.277 283.157,232.255 282.940,233.287 282.940 C 234.319 282.940,235.318 282.691,235.506 282.386 C 235.695 282.080,236.583 281.831,237.481 281.831 C 238.378 281.831,239.112 281.581,239.112 281.276 C 239.112 280.971,239.861 280.721,240.777 280.721 C 241.692 280.721,242.441 280.472,242.441 280.166 C 242.441 279.861,243.069 279.612,243.836 279.612 C 245.178 279.612,245.683 279.437,248.397 278.034 C 249.080 277.681,250.016 277.393,250.478 277.393 C 250.940 277.393,251.318 277.143,251.318 276.838 C 251.318 276.533,251.817 276.283,252.427 276.283 C 253.037 276.283,253.537 276.033,253.537 275.728 C 253.537 275.423,254.161 275.173,254.924 275.173 C 255.687 275.173,256.311 274.924,256.311 274.619 C 256.311 274.313,256.689 274.064,257.150 274.064 C 257.928 274.064,260.107 273.051,260.749 272.392 C 260.902 272.235,262.275 271.486,263.800 270.728 C 265.326 269.969,266.657 269.161,266.759 268.932 C 266.861 268.703,267.298 268.516,267.730 268.516 C 268.162 268.516,268.516 268.293,268.516 268.021 C 268.516 267.749,269.131 267.372,269.883 267.183 C 270.635 266.995,271.872 266.219,272.632 265.459 C 273.392 264.699,274.274 264.078,274.593 264.078 C 274.912 264.078,275.173 263.828,275.173 263.523 C 275.173 263.218,275.548 262.968,276.006 262.968 C 276.463 262.968,276.838 262.718,276.838 262.413 C 276.838 262.108,277.101 261.859,277.423 261.859 C 277.744 261.859,278.805 261.111,279.780 260.197 C 280.756 259.283,281.765 258.534,282.024 258.532 C 282.283 258.531,283.195 257.781,284.050 256.865 C 284.905 255.950,285.780 255.201,285.995 255.201 C 286.444 255.201,298.615 242.905,300.693 240.352 C 301.456 239.414,302.705 237.866,303.467 236.911 C 304.230 235.956,305.104 234.875,305.409 234.508 C 305.714 234.142,306.712 232.718,307.627 231.345 C 308.541 229.972,309.434 228.724,309.610 228.571 C 309.786 228.419,310.536 227.171,311.276 225.798 C 312.016 224.424,312.802 223.166,313.023 223.000 C 313.955 222.301,321.812 205.738,323.144 201.664 C 323.943 199.223,324.807 196.727,325.064 196.117 C 325.322 195.506,325.827 193.883,326.188 192.510 C 326.549 191.137,327.048 189.265,327.297 188.350 C 332.353 169.793,332.341 142.356,327.269 124.272 C 326.627 121.983,325.975 119.300,325.820 118.308 C 325.664 117.316,325.315 116.505,325.043 116.505 C 324.772 116.505,324.549 116.035,324.549 115.461 C 324.549 114.471,322.865 109.625,321.055 105.407 C 320.598 104.340,319.785 102.406,319.251 101.110 C 318.716 99.813,318.066 98.752,317.808 98.752 C 317.549 98.752,317.337 98.270,317.337 97.682 C 317.337 97.093,316.963 96.237,316.505 95.780 C 316.047 95.322,315.673 94.573,315.673 94.115 C 315.673 93.658,315.360 92.953,314.978 92.550 C 314.596 92.147,313.790 90.881,313.187 89.736 C 312.585 88.592,311.929 87.656,311.730 87.656 C 311.532 87.656,311.061 86.913,310.685 86.006 C 310.084 84.553,309.605 83.851,307.436 81.241 C 307.167 80.917,306.629 80.059,306.241 79.334 C 305.854 78.610,305.316 77.752,305.046 77.427 C 304.777 77.103,304.054 76.214,303.439 75.451 C 298.918 69.836,289.705 60.322,285.176 56.588 C 283.880 55.520,282.491 54.334,282.088 53.953 C 281.685 53.571,281.143 53.259,280.883 53.259 C 280.624 53.259,280.052 52.760,279.612 52.150 C 279.172 51.540,278.620 51.040,278.386 51.040 C 277.977 51.040,276.416 49.869,274.874 48.405 C 274.472 48.024,273.876 47.712,273.549 47.712 C 273.222 47.712,272.954 47.508,272.954 47.260 C 272.954 47.012,272.080 46.466,271.012 46.047 C 269.945 45.628,269.071 45.082,269.071 44.834 C 269.071 44.586,268.696 44.383,268.239 44.383 C 267.781 44.383,267.404 44.196,267.402 43.967 C 267.400 43.738,266.838 43.271,266.154 42.929 C 265.470 42.588,262.436 41.027,259.412 39.462 C 256.388 37.897,253.454 36.616,252.893 36.616 C 252.332 36.616,251.872 36.366,251.872 36.061 C 251.872 35.756,251.495 35.506,251.033 35.506 C 250.571 35.506,249.759 35.286,249.230 35.016 C 248.700 34.747,247.517 34.218,246.602 33.842 C 245.687 33.466,244.504 32.937,243.974 32.668 C 243.444 32.398,242.630 32.178,242.164 32.178 C 241.698 32.178,240.883 31.959,240.353 31.691 C 238.750 30.881,235.500 29.958,234.251 29.958 C 233.604 29.958,232.921 29.709,232.732 29.404 C 232.544 29.098,231.455 28.849,230.314 28.849 C 229.173 28.849,228.001 28.623,227.712 28.348 C 227.157 27.821,224.042 27.335,218.031 26.838 C 216.047 26.674,214.187 26.310,213.897 26.030 C 213.270 25.423,187.888 25.334,187.287 25.936 M213.870 57.445 C 216.006 57.633,217.990 58.017,218.280 58.297 C 218.570 58.578,219.741 58.807,220.883 58.807 C 222.024 58.807,223.112 59.057,223.301 59.362 C 223.490 59.667,224.488 59.917,225.520 59.917 C 226.552 59.917,227.551 60.166,227.739 60.472 C 227.928 60.777,228.650 61.026,229.344 61.026 C 230.038 61.026,230.777 61.197,230.986 61.407 C 231.539 61.959,235.342 63.227,236.477 63.237 C 237.011 63.242,237.448 63.495,237.448 63.800 C 237.448 64.105,237.826 64.355,238.288 64.355 C 238.750 64.355,239.561 64.588,240.091 64.874 C 240.621 65.159,241.865 65.719,242.857 66.119 C 243.849 66.518,244.660 67.034,244.660 67.264 C 244.660 67.495,245.160 67.684,245.770 67.684 C 246.380 67.684,246.879 67.887,246.879 68.135 C 246.879 68.383,247.753 68.929,248.821 69.348 C 249.889 69.767,250.763 70.313,250.763 70.561 C 250.763 70.809,251.262 71.012,251.872 71.012 C 252.483 71.012,252.982 71.262,252.982 71.567 C 252.982 71.872,253.356 72.122,253.814 72.122 C 254.272 72.122,254.648 72.309,254.649 72.538 C 254.651 72.767,256.023 73.828,257.698 74.896 C 259.373 75.964,260.745 77.025,260.746 77.254 C 260.748 77.483,260.987 77.670,261.279 77.670 C 261.570 77.670,262.413 78.232,263.153 78.918 C 263.893 79.605,265.773 81.352,267.332 82.802 C 268.890 84.251,270.418 85.437,270.728 85.437 C 271.037 85.437,271.290 85.725,271.290 86.078 C 271.290 86.431,272.226 87.642,273.370 88.769 C 275.562 90.928,277.668 93.405,279.057 95.456 C 279.515 96.133,280.451 97.264,281.137 97.971 C 281.824 98.678,282.386 99.418,282.386 99.617 C 282.386 99.815,283.170 101.137,284.129 102.555 C 288.799 109.459,294.128 121.897,296.999 132.594 C 300.173 144.419,300.808 162.236,298.436 172.923 C 298.152 174.202,297.920 176.012,297.920 176.945 C 297.920 177.878,297.670 178.641,297.365 178.641 C 297.060 178.641,296.810 179.223,296.810 179.934 C 296.810 183.713,288.321 205.046,286.286 206.380 C 286.054 206.533,285.307 207.754,284.628 209.093 C 283.949 210.433,283.162 211.806,282.879 212.145 C 281.549 213.736,280.372 215.258,279.612 216.366 C 279.154 217.033,278.328 218.118,277.777 218.776 C 277.226 219.434,275.978 220.925,275.003 222.090 C 271.563 226.200,261.762 235.229,260.739 235.229 C 260.440 235.229,260.194 235.479,260.194 235.784 C 260.194 236.089,259.840 236.338,259.408 236.338 C 258.976 236.338,258.539 236.558,258.437 236.825 C 258.336 237.093,256.630 238.336,254.646 239.588 C 252.663 240.840,250.791 242.070,250.485 242.322 C 250.180 242.574,249.119 243.139,248.128 243.578 C 247.136 244.017,246.325 244.565,246.325 244.796 C 246.325 245.026,245.825 245.215,245.215 245.215 C 244.605 245.215,244.105 245.465,244.105 245.770 C 244.105 246.075,243.728 246.325,243.266 246.325 C 242.804 246.325,241.992 246.554,241.463 246.834 C 239.142 248.061,235.174 249.653,234.435 249.653 C 233.992 249.653,233.476 249.903,233.287 250.208 C 233.099 250.513,232.350 250.763,231.623 250.763 C 230.896 250.763,230.147 251.012,229.958 251.318 C 229.770 251.623,229.021 251.872,228.294 251.872 C 227.567 251.872,226.835 252.096,226.666 252.369 C 226.497 252.641,225.421 253.006,224.275 253.179 C 223.129 253.352,220.693 253.765,218.863 254.097 C 207.811 256.101,181.270 255.693,178.946 253.483 C 178.656 253.207,177.485 252.982,176.343 252.982 C 175.202 252.982,174.114 252.732,173.925 252.427 C 173.737 252.122,172.973 251.872,172.228 251.872 C 171.483 251.872,170.874 251.623,170.874 251.318 C 170.874 251.012,170.246 250.763,169.479 250.763 C 168.712 250.763,167.651 250.542,167.121 250.273 C 166.592 250.003,165.409 249.475,164.494 249.098 C 163.578 248.722,162.396 248.194,161.866 247.924 C 161.336 247.655,160.525 247.434,160.063 247.434 C 159.601 247.434,159.223 247.184,159.223 246.879 C 159.223 246.574,158.599 246.325,157.836 246.325 C 157.074 246.325,156.449 246.075,156.449 245.770 C 156.449 245.465,155.950 245.215,155.340 245.215 C 154.730 245.215,154.230 244.965,154.230 244.660 C 154.230 244.355,153.856 244.105,153.398 244.105 C 152.940 244.105,152.566 243.856,152.566 243.551 C 152.566 243.245,152.067 242.996,151.456 242.996 C 150.846 242.996,150.347 242.785,150.347 242.528 C 150.347 242.271,149.234 241.489,147.875 240.789 C 146.515 240.090,144.903 239.052,144.292 238.483 C 143.681 237.914,142.921 237.448,142.603 237.448 C 142.285 237.448,142.025 237.241,142.025 236.987 C 142.025 236.733,141.349 236.172,140.523 235.739 C 139.697 235.306,138.360 234.265,137.551 233.426 C 136.742 232.587,135.905 231.900,135.691 231.900 C 135.180 231.900,126.165 222.701,123.701 219.665 C 122.642 218.361,121.463 216.978,121.082 216.592 C 120.700 216.206,120.388 215.679,120.388 215.420 C 120.388 215.160,119.951 214.536,119.417 214.032 C 117.996 212.690,117.511 211.979,115.716 208.599 C 114.825 206.921,113.923 205.423,113.712 205.270 C 113.094 204.823,109.847 198.018,109.847 197.169 C 109.847 196.743,109.598 196.394,109.293 196.394 C 108.988 196.394,108.738 196.103,108.738 195.748 C 108.738 195.392,108.008 193.208,107.115 190.893 C 103.683 181.992,102.179 174.656,100.583 159.028 C 100.250 155.767,100.910 148.585,102.349 139.806 C 103.526 132.621,105.626 124.492,107.294 120.666 C 109.709 115.122,115.123 104.300,115.480 104.300 C 115.697 104.300,116.033 103.802,116.226 103.193 C 116.420 102.585,116.873 101.773,117.235 101.390 C 117.596 101.007,118.641 99.572,119.556 98.200 C 120.472 96.829,121.720 95.169,122.330 94.512 C 122.940 93.854,124.026 92.546,124.743 91.605 C 127.093 88.520,137.400 78.782,139.945 77.244 C 140.784 76.736,141.470 76.125,141.470 75.886 C 141.470 75.647,141.738 75.451,142.065 75.451 C 142.392 75.451,142.988 75.139,143.390 74.757 C 145.246 72.996,146.543 72.122,147.302 72.122 C 147.756 72.122,148.128 71.902,148.128 71.632 C 148.128 71.362,148.564 71.003,149.098 70.834 C 150.396 70.422,153.351 68.621,153.583 68.100 C 153.685 67.871,154.246 67.684,154.831 67.684 C 155.416 67.684,155.895 67.434,155.895 67.129 C 155.895 66.824,156.261 66.574,156.710 66.574 C 157.158 66.574,158.414 66.075,159.501 65.465 C 160.587 64.854,161.843 64.355,162.291 64.355 C 162.740 64.355,163.107 64.105,163.107 63.800 C 163.107 63.495,163.594 63.245,164.190 63.245 C 164.786 63.245,165.972 62.965,166.825 62.622 C 171.196 60.864,174.318 59.917,175.735 59.917 C 176.382 59.917,177.065 59.667,177.254 59.362 C 177.442 59.057,178.566 58.807,179.750 58.807 C 180.935 58.807,182.058 58.558,182.247 58.252 C 182.435 57.947,184.135 57.680,186.024 57.659 C 187.913 57.637,189.958 57.397,190.569 57.124 C 191.702 56.619,206.866 56.827,213.870 57.445 M192.233 64.914 C 191.012 65.182,188.343 65.415,186.302 65.433 C 184.260 65.450,182.435 65.714,182.247 66.019 C 182.058 66.325,180.810 66.574,179.473 66.574 C 178.136 66.574,176.888 66.824,176.699 67.129 C 176.510 67.434,175.702 67.684,174.903 67.684 C 173.219 67.684,169.961 68.644,165.742 70.383 C 164.903 70.729,163.655 71.226,162.968 71.486 C 159.905 72.649,155.911 74.655,155.903 75.035 C 155.898 75.264,155.570 75.451,155.173 75.451 C 154.152 75.451,151.466 76.756,151.461 77.254 C 151.458 77.483,151.082 77.670,150.624 77.670 C 150.166 77.670,149.792 77.920,149.792 78.225 C 149.792 78.530,149.465 78.779,149.064 78.779 C 148.664 78.779,147.801 79.279,147.146 79.889 C 146.491 80.499,145.695 80.999,145.377 80.999 C 145.059 80.999,144.799 81.248,144.799 81.553 C 144.799 81.859,144.480 82.108,144.089 82.108 C 143.699 82.108,143.020 82.607,142.580 83.218 C 142.140 83.828,141.594 84.327,141.366 84.327 C 139.951 84.327,126.435 98.226,125.158 100.995 C 124.882 101.592,124.476 102.080,124.254 102.080 C 124.033 102.080,123.541 102.829,123.162 103.745 C 122.783 104.660,122.254 105.409,121.985 105.409 C 121.717 105.409,121.498 105.888,121.498 106.472 C 121.498 107.057,121.278 107.619,121.009 107.721 C 120.428 107.941,114.663 119.343,113.419 122.734 C 107.497 138.873,106.519 161.174,111.029 177.254 C 112.336 181.913,113.814 186.055,115.056 188.542 C 115.766 189.962,116.511 191.810,116.713 192.649 C 116.915 193.488,117.326 194.175,117.625 194.175 C 117.924 194.175,118.169 194.674,118.169 195.284 C 118.169 195.895,118.358 196.394,118.589 196.394 C 118.819 196.394,119.315 197.088,119.691 197.936 C 120.066 198.784,120.754 199.970,121.219 200.571 C 121.685 201.172,122.868 202.913,123.849 204.438 C 124.830 205.964,125.888 207.512,126.200 207.879 C 126.513 208.245,127.393 209.342,128.155 210.317 C 129.872 212.511,133.282 215.862,133.538 215.607 C 133.642 215.503,132.858 213.946,131.797 212.147 C 126.752 203.601,121.498 191.465,121.498 188.359 C 121.498 187.896,121.273 187.517,120.999 187.517 C 120.725 187.517,120.380 186.456,120.234 185.160 C 120.087 183.863,119.625 180.430,119.207 177.531 C 118.234 170.787,118.234 159.865,119.207 153.121 C 119.625 150.222,120.087 146.789,120.234 145.492 C 120.380 144.196,120.684 143.135,120.908 143.135 C 121.133 143.135,121.773 141.137,122.330 138.696 C 122.888 136.255,123.553 134.258,123.808 134.258 C 124.063 134.258,124.272 133.875,124.272 133.407 C 124.272 132.940,124.896 131.325,125.659 129.820 C 126.422 128.314,127.046 126.807,127.046 126.470 C 127.046 126.133,127.420 125.483,127.877 125.026 C 128.334 124.568,128.872 123.525,129.072 122.707 C 129.272 121.890,129.594 121.096,129.787 120.943 C 129.980 120.791,130.942 119.417,131.925 117.892 C 134.814 113.405,135.388 112.605,137.576 110.010 C 137.887 109.641,138.141 108.954,138.141 108.484 C 138.141 108.013,138.416 107.628,138.751 107.628 C 139.086 107.628,140.114 106.817,141.034 105.825 C 146.590 99.841,147.642 98.752,147.866 98.752 C 148.179 98.752,150.086 97.196,151.778 95.562 C 152.489 94.875,153.331 94.313,153.650 94.313 C 153.969 94.313,154.230 94.118,154.230 93.878 C 154.230 93.639,154.970 93.006,155.874 92.472 C 156.779 91.938,157.840 91.197,158.232 90.827 C 158.625 90.456,159.695 89.778,160.610 89.321 C 161.526 88.864,162.399 88.359,162.552 88.198 C 163.119 87.602,172.286 83.209,172.954 83.213 C 173.336 83.216,173.648 82.968,173.648 82.663 C 173.648 82.358,174.257 82.108,175.002 82.108 C 175.747 82.108,176.510 81.859,176.699 81.553 C 176.888 81.248,177.530 80.999,178.126 80.999 C 178.723 80.999,179.644 80.780,180.174 80.512 C 181.901 79.639,185.068 78.779,186.553 78.779 C 187.353 78.779,188.139 78.565,188.301 78.303 C 189.446 76.450,223.993 76.362,226.630 78.205 C 226.935 78.419,228.682 78.925,230.513 79.330 C 232.344 79.736,234.079 80.277,234.369 80.533 C 234.659 80.789,235.470 80.999,236.172 80.999 C 236.874 80.999,237.448 81.248,237.448 81.553 C 237.448 81.859,238.072 82.108,238.835 82.108 C 239.598 82.108,240.222 82.358,240.222 82.663 C 240.222 82.968,240.550 83.218,240.950 83.218 C 241.745 83.218,245.782 84.990,247.989 86.307 C 248.752 86.762,250.312 87.561,251.456 88.081 C 252.601 88.602,253.537 89.218,253.537 89.451 C 253.537 89.684,253.981 89.875,254.524 89.875 C 255.067 89.875,255.871 90.374,256.311 90.985 C 256.751 91.595,257.302 92.094,257.536 92.094 C 257.943 92.094,258.346 92.399,261.766 95.284 C 263.988 97.158,265.178 96.423,263.262 94.360 C 259.535 90.346,253.199 84.327,252.702 84.327 C 252.433 84.327,250.657 82.929,249.354 81.692 C 248.952 81.311,248.355 80.999,248.029 80.999 C 247.702 80.999,247.434 80.749,247.434 80.444 C 247.434 80.139,247.060 79.889,246.602 79.889 C 246.144 79.889,245.770 79.686,245.770 79.437 C 245.770 79.189,244.709 78.406,243.412 77.698 C 236.859 74.122,235.051 73.232,234.340 73.232 C 233.914 73.232,233.564 72.982,233.564 72.677 C 233.564 72.372,233.187 72.122,232.725 72.122 C 232.263 72.122,231.389 71.872,230.783 71.567 C 230.177 71.262,229.185 70.763,228.579 70.458 C 227.973 70.153,226.974 69.903,226.360 69.903 C 225.745 69.903,225.243 69.653,225.243 69.348 C 225.243 69.043,224.508 68.793,223.611 68.793 C 222.714 68.793,221.842 68.571,221.674 68.300 C 221.507 68.028,220.556 67.668,219.561 67.498 C 218.567 67.329,216.505 66.904,214.979 66.554 C 209.357 65.264,195.268 64.249,192.233 64.914 " stroke="none" fill="#000000" fill-rule="evenodd"></path></g></svg>